<svg xmlns="http://www.w3.org/2000/svg" style="display:none">
  <symbol id="send" viewBox="0 0 24 24">
    <path fill="currentColor" d="M3 12l18-9-4 9 4 9-18-9zm14-3l-8 3 8 3-2 4-10-7 10-7 2 4z"/>
  </symbol>
  <symbol id="close" viewBox="0 0 24 24">
    <path fill="currentColor" d="M18.3 5.71L12 12l6.3 6.29-1.41 1.42L10.59 13.41 4.29 19.71 2.88 18.3 9.17 12 2.88 5.71 4.29 4.29 10.59 10.59 16.89 4.29z"/>
  </symbol>
  <symbol id="info" viewBox="0 0 24 24">
    <path fill="currentColor" d="M11 7h2v2h-2V7zm0 4h2v6h-2v-6zm1-9C6.48 2 2 6.48 2 12s4.48 10 10 10
             10-4.48 10-10S17.52 2 12 2z"/>
  </symbol>
</svg>
